<svg id="Capa_1" data-name="Capa 1" xmlns="http://www.w3.org/2000/svg" width="1234.51" height="346.56" viewBox="0 0 1234.51 346.56">
  <defs>
    <style>
      .cls-1 {
        fill: #c19435;
      }

      .cls-2 {
        fill: #b06571;
      }

      .cls-3 {
        fill: #8d6076;
      }

      .cls-4 {
        fill: #6e7581;
      }
    </style>
  </defs>
  <g>
    <path class="cls-1" d="M435.79,654.06H374.5q-9.5,0-13.84-4.49c-2.9-3-4.35-7.75-4.35-14.29V370.77a25.69,25.69,0,0,1,1.38-9,15.16,15.16,0,0,1,4.16-6.12l51-44.5a15.34,15.34,0,0,1,5.33-2.65,25.1,25.1,0,0,1,7.32-1h121q28.07,0,47.06,6.12t30,17.15a61.18,61.18,0,0,1,15.62,26.53,120.49,120.49,0,0,1,4.54,33.88v52.25a113.44,113.44,0,0,1-5.33,35.72,61.9,61.9,0,0,1-18.39,27.55l-51.41,44.09q-9.89,8.57-25.5,14.08T505,571.2v19.59a25.65,25.65,0,0,1-1.38,9,15.16,15.16,0,0,1-4.16,6.12L448.05,650a13.36,13.36,0,0,1-4.94,2.86A21.46,21.46,0,0,1,435.79,654.06Zm51-48.57q7.51,0,10.87-3.47T501,590.79V523h45.47q53.78,0,73.55-22t19.77-57.56V391.18q0-35.51-19.77-57.56t-73.55-22h-121q-7.51,0-10.87,3.47t-3.37,11.23V590.79q0,7.76,3.37,11.23t10.87,3.47ZM541,488.33H459.52v80.42h-4V348.32H541q18.59,0,30.25,4.29t18,11.63a40.66,40.66,0,0,1,8.7,17.55,97.41,97.41,0,0,1,2.37,22V434a94.57,94.57,0,0,1-2.37,21.84,39,39,0,0,1-8.7,17.14q-6.33,7.16-18,11.23T541,488.33Zm-81.45-4.08H541q17.4,0,28.28-3.67t16.8-10.41a36.3,36.3,0,0,0,8.11-15.92A88.33,88.33,0,0,0,596.33,434V403.83a91.08,91.08,0,0,0-2.17-20.41,37.84,37.84,0,0,0-8.11-16.32q-5.92-6.94-16.8-10.82T541,352.4H459.52Zm40.73-96.33h35.58q11.48,0,15,6.12a27.13,27.13,0,0,1,3.56,13.88v21.63a27.13,27.13,0,0,1-3.56,13.88q-3.55,6.12-15,6.12H500.25Z" transform="translate(-356.31 -307.5)"/>
    <path class="cls-2" d="M885,654.06H683.72q-9.5,0-13.84-4.49c-2.9-3-4.35-7.75-4.35-14.29V370.77a25.44,25.44,0,0,1,1.39-9,15,15,0,0,1,4.15-6.12l51-44.5a15.3,15.3,0,0,1,5.34-2.65,25,25,0,0,1,7.31-1H796q9.5,0,13.84,4.49t4.35,14.29V492.41l.79-.81,51-44.5a15.48,15.48,0,0,1,5.34-2.65,25.1,25.1,0,0,1,7.32-1H936q9.5,0,13.84,4.49t4.35,14.29V590.79a25.65,25.65,0,0,1-1.38,9,15.24,15.24,0,0,1-4.15,6.12L897.25,650a13.36,13.36,0,0,1-4.94,2.86A21.46,21.46,0,0,1,885,654.06Zm51-48.57q7.51,0,10.88-3.47c2.23-2.31,3.36-6.06,3.36-11.23V462.21c0-5.17-1.13-8.91-3.36-11.23S941,447.51,936,447.51H878.67q-7.53,0-10.88,3.47t-3.36,11.23v66.13H810.26V326.28c0-5.17-1.13-8.91-3.36-11.23S801,311.58,796,311.58H734.73q-7.51,0-10.87,3.47c-2.25,2.32-3.36,6.06-3.36,11.23V590.79c0,5.17,1.11,8.92,3.36,11.23s5.86,3.47,10.87,3.47ZM763.6,568.75V348.32h3.95V564.67H905.16V484.25h4v84.5Z" transform="translate(-356.31 -307.5)"/>
    <path class="cls-3" d="M1062.54,650a13.33,13.33,0,0,1-5,2.86,21.36,21.36,0,0,1-7.31,1.22H992.15q-9.48,0-13.84-4.49c-2.9-3-4.35-7.75-4.35-14.29V527.52a128.22,128.22,0,0,1,3.76-28.78,309.89,309.89,0,0,1,12.06-38.16l34-92.26a25.37,25.37,0,0,1,3-6.32,34.4,34.4,0,0,1,3.76-4.7l.39-.41,50.62-43.68a20.76,20.76,0,0,1,7.51-4.28,31.68,31.68,0,0,1,9.89-1.43h106.37q9.09,0,14.82,3.88t8.51,12l34.4,92.66a314,314,0,0,1,12.06,38.17,128.59,128.59,0,0,1,3.75,28.78V590.79a25.65,25.65,0,0,1-1.38,9,15.24,15.24,0,0,1-4.15,6.12L1221.89,650a13.2,13.2,0,0,1-4.94,2.86,21.36,21.36,0,0,1-7.31,1.22h-59.71q-9.9,0-14.63-4.69t-4.75-14.09V582.22h-11.07v8.57a25.4,25.4,0,0,1-1.39,9,15.14,15.14,0,0,1-4.15,6.12Zm53-59.19V533.64h70v57.15q0,7.76,3.76,11.23t11.67,3.47h59.71q7.5,0,10.87-3.47t3.36-11.23V483a124.1,124.1,0,0,0-3.76-28.17,318.08,318.08,0,0,0-11.66-37.15l-34.4-92.66c-1.58-4.62-4-8-7.32-10.2s-7.45-3.27-12.45-3.27H1098.92q-7.92,0-12.85,3.27t-7.32,10.2l-34.4,92.66a318.33,318.33,0,0,0-11.67,37.15,124,124,0,0,0-3.75,28.17V590.79c0,5.17,1.11,8.92,3.36,11.23s5.86,3.47,10.87,3.47h58.13q7.5,0,10.87-3.47T1115.52,590.79Zm113.49-22V498.54H1074.8v70.21h-4V481.8a115.25,115.25,0,0,1,1.78-21,124.27,124.27,0,0,1,4.94-18.57l25.31-66.95a84.87,84.87,0,0,1,9.89-19.18q5.54-7.75,19-7.76h38.75q13,0,18.39,7.76A101.38,101.38,0,0,1,1199,375.67l27.28,66.54a124.29,124.29,0,0,1,5,18.57,116.18,116.18,0,0,1,1.77,21v86.95ZM1074.8,481.8v12.66H1229V481.8a109.39,109.39,0,0,0-1.78-20.41,130.18,130.18,0,0,0-4.55-17.55L1195.4,377.3a102.91,102.91,0,0,0-9.09-17.75q-4.75-7.14-15.82-7.15h-38.75q-11.87,0-16.61,7.15a90.27,90.27,0,0,0-8.7,17.34l-25.31,66.95a130.19,130.19,0,0,0-4.54,17.55A109.39,109.39,0,0,0,1074.8,481.8Zm63.26-84.5a15.57,15.57,0,0,1,3.36-5.3,6,6,0,0,1,4.16-1.64h9.88a5.94,5.94,0,0,1,4.15,1.64,15.57,15.57,0,0,1,3.37,5.3l18.58,62.05h-62.08Z" transform="translate(-356.31 -307.5)"/>
    <path class="cls-4" d="M1446.49,654.06h-64.06q-9.89,0-14-4.49c-2.77-3-4.16-7.75-4.16-14.29v-51l-59.71-82.46q-9.48-13.05-12.65-22.86t-3.16-29.79V370.77a25.46,25.46,0,0,1,1.38-9,15.14,15.14,0,0,1,4.15-6.12l51-44.5a15.48,15.48,0,0,1,5.34-2.65,25.1,25.1,0,0,1,7.32-1h60.89q9.5,0,13.84,4.49t4.35,14.29v66.94a67,67,0,0,0,.4,7.35,23.58,23.58,0,0,0,2.37,7.76l4.74,6.93V370.77a25.44,25.44,0,0,1,1.39-9,15,15,0,0,1,4.15-6.12l51-44.5a15.48,15.48,0,0,1,5.34-2.65,25,25,0,0,1,7.31-1h58.92q9.49,0,13.84,4.49t4.35,14.29v78.37q0,20-3.16,29.8T1575,457.31l-59.31,82.86v50.62a25.65,25.65,0,0,1-1.38,9,15.16,15.16,0,0,1-4.16,6.12L1458.75,650a13.36,13.36,0,0,1-4.94,2.86A21.46,21.46,0,0,1,1446.49,654.06Zm51-48.57q7.51,0,10.88-3.47c2.23-2.31,3.36-6.06,3.36-11.23V539l60.1-84.09q8.7-12.64,11.86-22t3.17-28.17V326.28c0-5.17-1.13-8.91-3.36-11.23s-5.87-3.47-10.88-3.47h-58.92q-7.51,0-10.87,3.47t-3.36,11.23v66.94c0,2.73-.14,5.58-.4,8.57a17.93,17.93,0,0,1-3.16,8.58l-18.19,29.39a16.06,16.06,0,0,1-4.15,5.3,8.64,8.64,0,0,1-5.34,1.64h-4a8.59,8.59,0,0,1-5.34-1.64,15.94,15.94,0,0,1-4.16-5.3l-18.18-29.39a17.84,17.84,0,0,1-3.17-8.58c-.26-3-.39-5.84-.39-8.57V326.28c0-5.17-1.13-8.91-3.36-11.23s-5.87-3.47-10.88-3.47h-60.89q-7.51,0-10.88,3.47t-3.36,11.23v78.37q0,18.78,3,28.17t12.06,22l60.5,83.68v52.25q0,7.76,3.36,11.23t10.87,3.47ZM1470.22,499h-2.77v69.8h-4V499h-4a30.07,30.07,0,0,1-15.62-4.09q-6.92-4.07-13.25-13.06l-38.35-55.11a28.83,28.83,0,0,1-5.14-14.28q-.79-8.16-.79-17.15V348.32h3.95v46.94a154.48,154.48,0,0,0,.79,16.13,30.67,30.67,0,0,0,4.75,13.67l38.35,55.11q5.14,8.18,11.87,11.43a30.44,30.44,0,0,0,13.44,3.26h10.68a27.16,27.16,0,0,0,13.64-3.47q6.12-3.47,12.06-11.22l39.54-55.11a26.11,26.11,0,0,0,4.75-13.27q.78-7.95.79-16.53V348.32h4v46.94q0,9-.59,16.94a27.76,27.76,0,0,1-5.34,14.49l-39.54,55.11q-6.33,9-13.25,13.06A30.83,30.83,0,0,1,1470.22,499Z" transform="translate(-356.31 -307.5)"/>
  </g>
</svg>
