<svg id="Capa_1" data-name="Capa 1" xmlns="http://www.w3.org/2000/svg" width="1506.17" height="346.56" viewBox="0 0 1506.17 346.56">
  <defs>
    <style>
      .cls-1 {
        fill: #c19435;
      }

      .cls-2 {
        fill: #b06571;
      }

      .cls-3 {
        fill: #8d6076;
      }

      .cls-4 {
        fill: #6e7581;
      }

      .cls-5 {
        fill: #bb6a35;
      }
    </style>
  </defs>
  <g>
    <path class="cls-1" d="M355.06,584.45l-51.41,44.08a13.07,13.07,0,0,1-4.94,2.86,21.12,21.12,0,0,1-7.31,1.22H230.5q-9.5,0-13.84-4.49t-4.35-14.28V349.32a25.69,25.69,0,0,1,1.38-9,15.16,15.16,0,0,1,4.16-6.12l51-44.49a15.34,15.34,0,0,1,5.33-2.66,25.44,25.44,0,0,1,7.32-1H413.19q47,0,64.45,20.21t17.4,52v18.78q0,15.1-3.56,26.33A39.39,39.39,0,0,1,480,421.58h-.39a53.66,53.66,0,0,1,29.85,21.22q11.28,15.93,11.27,40v86.53a25.61,25.61,0,0,1-1.38,9,15.35,15.35,0,0,1-4.15,6.13L463.8,628.53a13.23,13.23,0,0,1-4.94,2.86,21.18,21.18,0,0,1-7.32,1.22H390.25q-9.5,0-13.84-4.49t-4.35-14.28V551.38q0-6.52-2.37-10c-1.58-2.31-4.49-3.47-8.7-3.47h-.4v31.43a25.61,25.61,0,0,1-1.38,9A15.35,15.35,0,0,1,355.06,584.45ZM342.41,584q7.5,0,10.87-3.47t3.36-11.23v-80H412c5.54,0,9.42,1.43,11.67,4.28s3.36,7.29,3.36,13.27v62.45c0,5.18,1.11,8.92,3.36,11.23s5.86,3.47,10.87,3.47h61.29q7.51,0,10.88-3.47c2.23-2.31,3.36-6.05,3.36-11.23V482.81q0-25.72-13.25-41.23t-34.6-18a31.29,31.29,0,0,0,17.2-17.35q5-12,4.94-29.19V358.3q0-30.19-16.8-49.18t-61.09-19H281.51q-7.51,0-10.87,3.46t-3.37,11.23V569.34q0,7.77,3.37,11.23T281.51,584ZM313.93,547.3H310V326.87h90.16q22.92,0,34,13.27t11.08,33.27v28.16q0,18.78-4.75,30.82t-19,16.53h4.35q24.12,0,36,11.23t11.87,32.45v54.7h-4V492.6q0-20-10.67-30t-33.22-10H313.93ZM400.14,331H313.93v118h86.21q24.51,0,32.82-12.24t8.3-34.7V373.41q0-18.78-10.08-30.62T400.14,331Zm-43.5,32.65H386.3q10.27,0,13.84,5.51t3.56,13.68v13.88q0,8.16-3.56,13.67t-13.84,5.51H356.64Z" transform="translate(-212.31 -286.05)"/>
    <path class="cls-2" d="M747.32,632.61H563.84q-9.5,0-13.84-4.49t-4.35-14.28V349.32a25.69,25.69,0,0,1,1.38-9,15.14,15.14,0,0,1,4.15-6.12l51-44.49a15.49,15.49,0,0,1,5.34-2.66,25.44,25.44,0,0,1,7.32-1H798.33q9.48,0,13.84,4.49t4.34,14.29v47.76a25.65,25.65,0,0,1-1.38,9,15.24,15.24,0,0,1-4.15,6.12l-34,29a12.22,12.22,0,0,1,5.74,6.12,26.93,26.93,0,0,1,1.78,10.61v43.68a25.63,25.63,0,0,1-1.39,9,15.24,15.24,0,0,1-4.15,6.12l-35.19,30.62h54.57q9.48,0,13.84,4.49t4.34,14.28v47.76a25.61,25.61,0,0,1-1.38,9,15.35,15.35,0,0,1-4.15,6.13l-51.41,44.08a13.07,13.07,0,0,1-4.94,2.86A21.12,21.12,0,0,1,747.32,632.61Zm51-48.57q7.5,0,10.87-3.47t3.36-11.23V521.58c0-5.16-1.12-8.91-3.36-11.22s-5.87-3.47-10.87-3.47H689.19V471.78H766.3q7.5,0,10.87-3.47c2.24-2.3,3.36-6.05,3.36-11.22V413.41c0-5.16-1.12-8.91-3.36-11.22s-5.87-3.47-10.87-3.47H689.19V367.28H798.33q7.5,0,10.87-3.47c2.24-2.3,3.36-6.05,3.36-11.22V304.83q0-7.75-3.36-11.23t-10.87-3.46H614.85q-7.51,0-10.88,3.46t-3.36,11.23V569.34q0,7.77,3.36,11.23T614.85,584ZM777,543.22v4.08H643.71V326.87H777V331H647.67V433.41h97.27v4.09H647.67V543.22Z" transform="translate(-212.31 -286.05)"/>
    <path class="cls-3" d="M854.87,632.61q-9.5,0-13.84-4.49t-4.35-14.28V566.08a25.65,25.65,0,0,1,1.38-9,15.27,15.27,0,0,1,4.16-6.13l39.54-34.28q-21-6.53-33-22.25t-12.06-45.11V406.47q0-18.36,5.93-32.65a64.8,64.8,0,0,1,17-24.09L911,305.24q10.68-9,26.49-14.08t36-5.11h110.72q9.48,0,13.84,4.49t4.35,14.29v48.58a25.63,25.63,0,0,1-1.39,9,15.24,15.24,0,0,1-4.15,6.12l-35.59,30.61q24.92,5.73,40.14,21.43t15.22,48.78V512.2q0,18.36-5.93,32.65a63.07,63.07,0,0,1-17.4,24.09l-51,44.08a78.09,78.09,0,0,1-26.89,14.49q-15.81,5.1-35.59,5.1Zm176-48.57q38,0,59.91-18.57t22-53.27V469.33q0-34.27-17-49T1051,401.57l-58.92-8.16a10.39,10.39,0,0,1-7.91-4.08,14.52,14.52,0,0,1-2.76-9,13.68,13.68,0,0,1,2.76-8.78,9.53,9.53,0,0,1,7.91-3.47h92.14q7.5,0,10.87-3.47t3.36-11.22V304.83q0-7.75-3.36-11.23t-10.87-3.46H973.5q-38.37,0-60.11,18.57T891.64,362v42.86q0,34.29,16.81,49t44.49,18.78l59.31,8.57c3.42.28,6,1.5,7.71,3.68s2.57,5.58,2.57,10.2a13.68,13.68,0,0,1-2.57,8.37q-2.58,3.46-7.71,3.47H905.88q-7.51,0-10.87,3.47c-2.25,2.31-3.37,6.06-3.37,11.22v47.76q0,7.77,3.37,11.23T905.88,584Zm32-257.17V331H975.08q-16.61,0-26.49,9.38T938.7,364v33.47q0,14.29,5.54,20a26,26,0,0,0,14.63,7.35l83.43,17.55A36.38,36.38,0,0,1,1061.88,453q7.69,8.16,7.7,29.39v23.67q0,18-11.86,29.6t-32,11.63H927.23v-4.08h98.46q18.19,0,29.07-10.41t10.87-26.74V482.4q0-19.18-6.52-26.33t-17.6-9.59l-83.43-17.56a32.52,32.52,0,0,1-16.81-8.37q-6.53-6.32-6.52-23.06V364q0-16.32,11.07-26.74t29.26-10.41Z" transform="translate(-212.31 -286.05)"/>
    <path class="cls-4" d="M1342,632.61H1158.56q-9.49,0-13.84-4.49t-4.35-14.28V349.32a25.46,25.46,0,0,1,1.38-9,15,15,0,0,1,4.15-6.12l51-44.49a15.49,15.49,0,0,1,5.34-2.66,25.44,25.44,0,0,1,7.32-1H1393q9.49,0,13.84,4.49t4.35,14.29v47.76a25.65,25.65,0,0,1-1.38,9,15.24,15.24,0,0,1-4.15,6.12l-34,29a12.16,12.16,0,0,1,5.73,6.12,26.75,26.75,0,0,1,1.78,10.61v43.68a25.65,25.65,0,0,1-1.38,9,15.24,15.24,0,0,1-4.15,6.12l-35.2,30.62H1393q9.49,0,13.84,4.49t4.35,14.28v47.76a25.61,25.61,0,0,1-1.38,9,15.35,15.35,0,0,1-4.15,6.13l-51.41,44.08a13.23,13.23,0,0,1-4.94,2.86A21.14,21.14,0,0,1,1342,632.61ZM1393,584q7.51,0,10.88-3.47c2.23-2.31,3.36-6.05,3.36-11.23V521.58c0-5.16-1.13-8.91-3.36-11.22s-5.87-3.47-10.88-3.47H1283.91V471.78H1361q7.52,0,10.88-3.47c2.23-2.3,3.36-6.05,3.36-11.22V413.41c0-5.16-1.13-8.91-3.36-11.22s-5.87-3.47-10.88-3.47h-77.1V367.28H1393q7.51,0,10.88-3.47c2.23-2.3,3.36-6.05,3.36-11.22V304.83c0-5.17-1.13-8.91-3.36-11.23s-5.87-3.46-10.88-3.46H1209.57q-7.53,0-10.88,3.46t-3.36,11.23V569.34q0,7.77,3.36,11.23t10.88,3.47Zm-21.35-40.82v4.08H1238.43V326.87h133.26V331h-129.3V433.41h97.27v4.09h-97.27V543.22Z" transform="translate(-212.31 -286.05)"/>
    <path class="cls-5" d="M1576.91,632.61h-64.06q-9.48,0-13.84-4.49t-4.34-14.28V417.49h-54.18q-9.48,0-13.84-4.49t-4.35-14.28v-49.4a25.44,25.44,0,0,1,1.39-9,15,15,0,0,1,4.15-6.12l51-44.49a15.31,15.31,0,0,1,5.34-2.66,25.32,25.32,0,0,1,7.31-1h208.79q9.48,0,13.84,4.49t4.35,14.29v49.39a25.63,25.63,0,0,1-1.39,9,15.35,15.35,0,0,1-4.15,6.13l-51.41,44.08a13.07,13.07,0,0,1-4.94,2.86,21.36,21.36,0,0,1-7.31,1.22h-3.17V569.34a25.61,25.61,0,0,1-1.38,9,15.35,15.35,0,0,1-4.15,6.13l-51.41,44.08a13.15,13.15,0,0,1-4.94,2.86A21.18,21.18,0,0,1,1576.91,632.61Zm51-48.57q7.51,0,10.88-3.47c2.23-2.31,3.36-6.05,3.36-11.23V368.92h58.13q7.5,0,10.87-3.47t3.36-11.23V304.83q0-7.75-3.36-11.23t-10.87-3.46H1491.5q-7.51,0-10.87,3.46c-2.25,2.32-3.36,6.06-3.36,11.23v49.39c0,5.18,1.11,8.92,3.36,11.23s5.86,3.47,10.87,3.47h58.13V569.34q0,7.77,3.36,11.23t10.87,3.47Zm-34-36.74V331h-81.07v-4.09h166.08V331h-81.06V547.3Z" transform="translate(-212.31 -286.05)"/>
  </g>
</svg>
