<svg id="Capa_1" data-name="Capa 1" xmlns="http://www.w3.org/2000/svg" width="1860.69" height="594.12" viewBox="0 0 1860.69 594.12">
  <defs>
    <style>
      .cls-1 {
        isolation: isolate;
      }

      .cls-2 {
        fill: #c19435;
      }

      .cls-3 {
        fill: #bb6a35;
      }

      .cls-4 {
        fill: #bb5a42;
      }

      .cls-5 {
        fill: #b06571;
      }

      .cls-6 {
        fill: #8d6076;
      }

      .cls-7 {
        fill: #6e7581;
      }
    </style>
  </defs>
  <g id="Capa_2" data-name="Capa 2">
    <g id="Capa_1-2" data-name="Capa 1-2">
      <g id="Grupo_1" data-name="Grupo 1">
        <g id="Numeric">
          <g class="cls-1">
            <path class="cls-2" d="M133.24,285.37l-43.09,35.8A11.22,11.22,0,0,1,86,323.49a18.41,18.41,0,0,1-6.13,1H30.16q-7.95,0-11.6-3.64t-3.64-11.6V94.46a20.28,20.28,0,0,1,1.15-7.29,12.3,12.3,0,0,1,3.49-5L62.31,46.07a13,13,0,0,1,4.48-2.15,21.68,21.68,0,0,1,6.13-.83h34.47a29,29,0,0,1,12.26,2.32A33.4,33.4,0,0,1,129.59,53l22.87,26.52,40.11-33.48A12.93,12.93,0,0,1,197,43.92a21.73,21.73,0,0,1,6.13-.83h49.72q8,0,11.6,3.64t3.64,11.6V273.11A20.28,20.28,0,0,1,267,280.4a12.3,12.3,0,0,1-3.49,5l-43.08,35.8a11.27,11.27,0,0,1-4.15,2.32,18.37,18.37,0,0,1-6.13,1H160.42q-8,0-11.6-3.64t-3.65-11.6V269.79l-7.29-9v12.27a20.26,20.26,0,0,1-1.16,7.29A12.37,12.37,0,0,1,133.24,285.37ZM122.63,285q6.3,0,9.12-2.82t2.81-9.11V163.73l56.68,68.61v40.77q0,6.3,2.82,9.11t9.11,2.82h49.72q6.28,0,9.11-2.82t2.82-9.11V58.33q0-6.28-2.82-9.11c-1.88-1.87-4.92-2.82-9.11-2.82H203.17c-4.2,0-7.24,1-9.11,2.82s-2.82,4.92-2.82,9.11v70.6l-64.3-73.58a26,26,0,0,0-8.78-7,26.52,26.52,0,0,0-10.77-2H72.92c-4.2,0-7.24,1-9.12,2.82S61,54.14,61,58.33V273.11q0,6.3,2.82,9.11T72.92,285ZM104.73,78.88l122,137.22V76.23H230v179h-3.31V221.07L101.42,80.54a5.47,5.47,0,0,0-.83-.66,1.62,1.62,0,0,0-.83-.33.52.52,0,0,0-.49.33,1.35,1.35,0,0,0-.17.66V255.21H95.79V79.88a3.48,3.48,0,0,1,1.32-3,4.37,4.37,0,0,1,2.65-1,4.1,4.1,0,0,1,2.32.66A19.62,19.62,0,0,1,104.73,78.88Z" transform="translate(-14.92 -43.09)"/>
          </g>
          <g class="cls-1">
            <path class="cls-3" d="M401.71,329.45q-32.16,0-52.87-6.79t-32.31-18.07a60.36,60.36,0,0,1-16.08-25.85A102.3,102.3,0,0,1,296,248.58V94.46a20,20,0,0,1,1.16-7.29,12.18,12.18,0,0,1,3.48-5l42.75-36.13a13.08,13.08,0,0,1,4.48-2.15,21.68,21.68,0,0,1,6.13-.83h52q8,0,11.6,3.64t3.64,11.6V209.47a14.47,14.47,0,0,0,1,5.47,7.08,7.08,0,0,0,4.3,3.81V94.46a23.33,23.33,0,0,1,1-7.29,10,10,0,0,1,3-4.64l.33-.33L474,46.07a13.06,13.06,0,0,1,4.31-2.15,21.29,21.29,0,0,1,6.3-.83H535q7.95,0,11.6,3.64t3.64,11.6V222.4a88.69,88.69,0,0,1-4.31,28.17,48.24,48.24,0,0,1-15.57,22.21l-43.09,35.79q-11.61,9.94-32.15,15.41T401.71,329.45Zm145.17-107V58.33q0-6.28-2.82-9.11c-1.88-1.87-4.92-2.82-9.11-2.82H484.57c-4.2,0-7.24,1-9.12,2.82s-2.81,4.92-2.81,9.11V209.47a14.35,14.35,0,0,1-5,11.11q-5,4.47-22.53,4.47-17.25,0-22.21-4.47a14.34,14.34,0,0,1-5-11.11V58.33q0-6.28-2.82-9.11c-1.88-1.87-4.92-2.82-9.11-2.82H354c-4.2,0-7.24,1-9.11,2.82s-2.82,4.92-2.82,9.11V222.4a81.28,81.28,0,0,0,4.47,27.67,46.37,46.37,0,0,0,15.91,21.22q11.43,8.77,31.32,13.75t50.71,5q30.82,0,50.71-5t31.32-13.75a46.23,46.23,0,0,0,15.91-21.22A81,81,0,0,0,546.88,222.4ZM378.51,76.23h3.31V214.44q0,18.57,13.09,30t49.88,11.43q36.79,0,50-11.43t13.26-30V76.23h3.31V214.44q0,19.89-13.92,32.32t-52.7,12.43q-38.78,0-52.53-12.43t-13.75-32.32Z" transform="translate(-14.92 -43.09)"/>
          </g>
          <g class="cls-1">
            <path class="cls-4" d="M696,285.37l-43.09,35.8a11.3,11.3,0,0,1-4.14,2.32,18.41,18.41,0,0,1-6.13,1H593.27q-7.95,0-11.6-3.64T578,309.24V94.46a20.26,20.26,0,0,1,1.16-7.29,12.3,12.3,0,0,1,3.49-5l42.75-36.13a13,13,0,0,1,4.48-2.15,21.68,21.68,0,0,1,6.13-.83h53.36a19,19,0,0,1,10.44,2.65q4.14,2.65,7.79,8.95l22.54,41.43,3-5.3q1.32-2.32,2.82-4.48a16.55,16.55,0,0,1,3.14-3.48l42.76-35.79a18.52,18.52,0,0,1,12.26-4h53.7q7.95,0,11.6,3.64t3.64,11.6V273.11a20.26,20.26,0,0,1-1.16,7.29,12.18,12.18,0,0,1-3.48,5l-43.08,35.8a11.27,11.27,0,0,1-4.15,2.32,18.37,18.37,0,0,1-6.13,1H754q-8.29,0-11.77-3.64t-3.48-11.6v-87.5L719.22,238a17.93,17.93,0,0,1-6.13,3.48,25.82,25.82,0,0,1-8.12,1.16h-4.31v30.49a20.26,20.26,0,0,1-1.16,7.29A12.37,12.37,0,0,1,696,285.37ZM685.41,285q6.3,0,9.12-2.82t2.81-9.11V156.44l19.56,36.13a17.71,17.71,0,0,0,17.56,10.6h13.26a17.73,17.73,0,0,0,17.57-10.6l19.55-36.13V273.11q0,6.3,2.82,9.11t9.11,2.82h51.05q6.28,0,9.11-2.82t2.82-9.11V58.33q0-6.28-2.82-9.11c-1.88-1.87-4.92-2.82-9.11-2.82h-53.7a15.57,15.57,0,0,0-8.78,2.32,21.75,21.75,0,0,0-6.46,7.63l-29.5,54a26.7,26.7,0,0,1-2.82,4.31,4,4,0,0,1-3.15,1.33h-3a4,4,0,0,1-3.15-1.33,26,26,0,0,1-2.82-4.31l-29.83-54a21.65,21.65,0,0,0-6.46-7.63,15.57,15.57,0,0,0-8.78-2.32H636c-4.2,0-7.24,1-9.12,2.82s-2.82,4.92-2.82,9.11V273.11q0,6.3,2.82,9.11T636,285Zm55.35-127.6c4,0,6.85-.88,8.62-2.66s4.53-5.52,8.29-11.26L798.1,81.87a10.9,10.9,0,0,1,4.48-4.48,12,12,0,0,1,5.13-1.16h5.64q4.64,0,6.79,2.49t2.16,7.79v168.7H819V86.51a10,10,0,0,0-1.16-4.81q-1.17-2.15-4.47-2.15h-5a10.73,10.73,0,0,0-4,.66c-1.11.45-2.32,1.77-3.65,4l-40.43,61a101.9,101.9,0,0,1-9.12,12.27q-3.15,3.31-10.44,3.31t-10.44-3.31a101,101,0,0,1-9.11-12.27l-40.44-61c-1.32-2.21-2.6-3.53-3.81-4a12.15,12.15,0,0,0-4.14-.66h-5q-3.32,0-4.3,2.15a11.25,11.25,0,0,0-1,4.81v168.7h-3.31V86.51c0-3.53.71-6.13,2.15-7.79s3.59-2.49,6.46-2.49h5.64a13.18,13.18,0,0,1,5.3,1.16,10.53,10.53,0,0,1,4.64,4.48l40.44,61.65q5.63,8.61,8.28,11.26C733.91,156.56,736.78,157.44,740.76,157.44Z" transform="translate(-14.92 -43.09)"/>
          </g>
          <g class="cls-1">
            <path class="cls-5" d="M1061.6,324.48H907.81q-7.95,0-11.6-3.64t-3.65-11.6V94.46a20.26,20.26,0,0,1,1.16-7.29,12.3,12.3,0,0,1,3.49-5L940,46.07a13,13,0,0,1,4.48-2.15,21.68,21.68,0,0,1,6.13-.83h153.79q8,0,11.6,3.64t3.64,11.6V97.11a20.28,20.28,0,0,1-1.16,7.3,12.51,12.51,0,0,1-3.48,5l-28.5,23.53a10,10,0,0,1,4.8,5,21.11,21.11,0,0,1,1.49,8.62V182a20,20,0,0,1-1.16,7.29,12.28,12.28,0,0,1-3.48,5l-29.49,24.85h45.74q8,0,11.6,3.65t3.64,11.6v38.78a20.26,20.26,0,0,1-1.16,7.29,12.37,12.37,0,0,1-3.48,5l-43.09,35.8a11.14,11.14,0,0,1-4.14,2.32A18.37,18.37,0,0,1,1061.6,324.48ZM1104.36,285q6.29,0,9.11-2.82c1.87-1.87,2.82-4.91,2.82-9.11V234.33c0-4.2-1-7.24-2.82-9.12s-4.92-2.81-9.11-2.81h-91.48V193.89h64.63c4.19,0,7.23-.93,9.11-2.81s2.82-4.92,2.82-9.12V146.5q0-6.3-2.82-9.12t-9.11-2.81h-64.63V109h91.48c4.19,0,7.23-.93,9.11-2.81s2.82-4.92,2.82-9.12V58.33c0-4.19-1-7.23-2.82-9.11s-4.92-2.82-9.11-2.82H950.57c-4.2,0-7.24,1-9.12,2.82s-2.82,4.92-2.82,9.11V273.11q0,6.3,2.82,9.11t9.12,2.82Zm-17.9-33.14v3.31H974.76v-179h111.7v3.32H978.08v83.19h81.53v3.31H978.08V251.9Z" transform="translate(-14.92 -43.09)"/>
          </g>
          <g class="cls-1">
            <path class="cls-6" d="M1262.11,285.37,1219,321.17a11.27,11.27,0,0,1-4.15,2.32,18.37,18.37,0,0,1-6.13,1h-51q-7.95,0-11.6-3.64t-3.65-11.6V94.46a20.26,20.26,0,0,1,1.16-7.29,12.3,12.3,0,0,1,3.49-5l42.75-36.13a13,13,0,0,1,4.47-2.15,21.81,21.81,0,0,1,6.14-.83h110.37q39.44,0,54,16.41t14.58,42.25V117a68.86,68.86,0,0,1-3,21.38,31.88,31.88,0,0,1-9.61,14.75h-.33a44.92,44.92,0,0,1,25,17.23q9.45,12.93,9.45,32.48v70.27a20.26,20.26,0,0,1-1.16,7.29,12.37,12.37,0,0,1-3.48,5l-43.09,35.8a11.22,11.22,0,0,1-4.14,2.32,18.41,18.41,0,0,1-6.13,1h-51.38q-8,0-11.6-3.64t-3.64-11.6V258.52c0-3.53-.67-6.24-2-8.12s-3.76-2.81-7.29-2.81h-.34v25.52a20,20,0,0,1-1.16,7.29A12.18,12.18,0,0,1,1262.11,285.37Zm-10.6-.33q6.29,0,9.11-2.82t2.82-9.11v-65h46.4q7,0,9.78,3.48c1.87,2.32,2.82,5.91,2.82,10.77v50.71c0,4.2.93,7.24,2.81,9.11s4.92,2.82,9.12,2.82h51.37q6.3,0,9.12-2.82t2.81-9.11V202.84q0-20.88-11.1-33.47t-29-14.59A25.78,25.78,0,0,0,1372,140.7q4.14-9.78,4.14-23.7V101.75q0-24.52-14.09-39.93t-51.2-15.42H1200.47c-4.2,0-7.24,1-9.12,2.82s-2.81,4.92-2.81,9.11V273.11c0,4.2.93,7.24,2.81,9.11s4.92,2.82,9.12,2.82Zm-23.87-29.83h-3.31v-179h75.57q19.21,0,28.5,10.77t9.28,27v22.87q0,15.24-4,25t-15.91,13.42h3.64q20.22,0,30.16,9.12t10,26.35v44.41h-3.32V210.8q0-16.25-9-24.36t-27.84-8.12h-93.8ZM1299.9,79.55h-72.26v95.78h72.26q20.55,0,27.51-9.94t7-28.17V114q0-15.24-8.45-24.86T1299.9,79.55Zm-36.46,26.51h24.86q8.61,0,11.6,4.48a19.55,19.55,0,0,1,3,11.1v11.27a19.55,19.55,0,0,1-3,11.1q-3,4.49-11.6,4.48h-24.86Z" transform="translate(-14.92 -43.09)"/>
          </g>
          <g class="cls-1">
            <path class="cls-7" d="M1573,324.48H1431.81q-8,0-11.6-3.64t-3.65-11.6V269.79a20.26,20.26,0,0,1,1.16-7.29,12.25,12.25,0,0,1,3.48-5l40.11-33.81V149.81h-29.5q-8,0-11.6-3.64t-3.65-11.6V94.46a20.26,20.26,0,0,1,1.16-7.29,12.18,12.18,0,0,1,3.48-5L1464,46.07a12.93,12.93,0,0,1,4.47-2.15,21.73,21.73,0,0,1,6.13-.83h141.2q8,0,11.6,3.64t3.64,11.6V98.44a20,20,0,0,1-1.16,7.29,12.18,12.18,0,0,1-3.48,5l-39.44,33.15v74.57h28.84q8,0,11.6,3.65t3.64,11.6v39.44a20,20,0,0,1-1.16,7.29,12.18,12.18,0,0,1-3.48,5l-43.08,35.8a11.27,11.27,0,0,1-4.15,2.32A18.37,18.37,0,0,1,1573,324.48ZM1474.56,285h141.2q6.29,0,9.11-2.82t2.82-9.11V233.67q0-6.3-2.82-9.12t-9.11-2.81h-32.15V110.37h32.15q6.29,0,9.11-2.82t2.82-9.11V58.33q0-6.28-2.82-9.11c-1.88-1.87-4.92-2.82-9.11-2.82h-141.2c-4.2,0-7.24,1-9.11,2.82s-2.82,4.92-2.82,9.11V98.44q0,6.3,2.82,9.11t9.11,2.82h32.82V221.74h-32.82q-6.3,0-9.11,2.81t-2.82,9.12v39.44q0,6.3,2.82,9.11T1474.56,285Zm123.3-29.83h-105.4V251.9h51.37V79.55h-51.37V76.23h105.4v3.32h-50.71V251.9h50.71Z" transform="translate(-14.92 -43.09)"/>
          </g>
          <g class="cls-1">
            <path class="cls-2" d="M1817.6,324.48h-80.87q-43.43,0-64.14-22.54t-20.71-58.33V150.48q0-18.22,5.3-31.66a56.77,56.77,0,0,1,15.58-22.37l43.09-36.13q10.26-8.61,26.18-12.92t37.45-4.31h80.87c5.31,0,9.17,1.22,11.61,3.64s3.64,6.3,3.64,11.6V98.44a20.26,20.26,0,0,1-1.16,7.29,12.37,12.37,0,0,1-3.48,5l-43.09,35.8a11,11,0,0,1-4.14,2.32,18.37,18.37,0,0,1-6.13,1h-40.77v56q0,7,4.31,9.77t12.6,2.82h66.61c5.31,0,9.17,1.22,11.61,3.65s3.64,6.29,3.64,11.6v39.44a20.26,20.26,0,0,1-1.16,7.29,12.37,12.37,0,0,1-3.48,5l-43.09,35.8a11.14,11.14,0,0,1-4.14,2.32A18.37,18.37,0,0,1,1817.6,324.48ZM1860.35,285q6.3,0,9.12-2.82c1.87-1.87,2.82-4.91,2.82-9.11V233.67c0-4.2-1-7.24-2.82-9.12s-4.92-2.81-9.12-2.81h-66.61q-10.29,0-15.25-3.82c-3.32-2.53-5-6.57-5-12.09V126.94q0-8.28,5-12.43t15.25-4.14h66.61q6.3,0,9.12-2.82c1.87-1.87,2.82-4.91,2.82-9.11V58.33c0-4.19-1-7.23-2.82-9.11s-4.92-2.82-9.12-2.82h-80.87Q1738,46.4,1718,63.14t-20,51.21V217.43q0,34.47,20,51T1779.48,285Zm-18.22-33.14v3.31h-55.35q-32.16,0-42.59-9.94t-10.44-32.81V119.65q0-23.54,10.6-33.47t42.43-10h55.35v3.32h-55.35q-29.17,0-39.45,9.11t-10.27,31v92.81q0,21.54,9.94,30.49t39.78,9Z" transform="translate(-14.92 -43.09)"/>
          </g>
        </g>
        <g id="Puzzle">
          <g class="cls-1">
            <path class="cls-3" d="M244.93,632.24H193.56q-8,0-11.6-3.64T178.31,617V402.22a20.26,20.26,0,0,1,1.16-7.29,12.3,12.3,0,0,1,3.49-5l42.75-36.13a13,13,0,0,1,4.48-2.15,21.68,21.68,0,0,1,6.13-.83H337.74q23.52,0,39.44,5t25.19,13.92a49.31,49.31,0,0,1,13.09,21.54,94.69,94.69,0,0,1,3.81,27.51v42.43a89.34,89.34,0,0,1-4.47,29,50.24,50.24,0,0,1-15.41,22.37l-43.09,35.8q-8.3,7-21.38,11.43t-32,5.14v15.91a20.26,20.26,0,0,1-1.16,7.29,12.37,12.37,0,0,1-3.48,5l-43.09,35.8a11.3,11.3,0,0,1-4.14,2.32A18.43,18.43,0,0,1,244.93,632.24Zm42.76-39.44q6.29,0,9.11-2.82t2.82-9.11v-55h38.12q45.06,0,61.65-17.9T416,461.22V418.79q0-28.83-16.57-46.73t-61.65-17.9H236.32c-4.2,0-7.24.95-9.12,2.82s-2.82,4.92-2.82,9.11V580.87q0,6.3,2.82,9.11t9.12,2.82Zm45.41-95.12H264.82V563h-3.31V384H333.1q15.57,0,25.35,3.48t15.08,9.45a32.49,32.49,0,0,1,7.29,14.25,76.39,76.39,0,0,1,2,17.9v24.52a74.23,74.23,0,0,1-2,17.74,31.29,31.29,0,0,1-7.29,13.92q-5.29,5.81-15.08,9.11T333.1,497.68Zm-68.28-3.32H333.1q14.58,0,23.69-3t14.09-8.45a29.23,29.23,0,0,0,6.8-12.93,69.35,69.35,0,0,0,1.82-16.41V429.07a71.42,71.42,0,0,0-1.82-16.57,30.42,30.42,0,0,0-6.8-13.26q-5-5.64-14.09-8.78t-23.69-3.15H264.82ZM299,416.14h29.83q9.6,0,12.59,5a21.51,21.51,0,0,1,3,11.27V450a21.48,21.48,0,0,1-3,11.27q-3,5-12.59,5H299Z" transform="translate(-14.92 -43.09)"/>
          </g>
          <g class="cls-1">
            <path class="cls-4" d="M541.57,637.21q-32.16,0-52.87-6.79t-32.31-18.07a60.27,60.27,0,0,1-16.08-25.85,102.3,102.3,0,0,1-4.47-30.16V402.22a20,20,0,0,1,1.16-7.29,12.18,12.18,0,0,1,3.48-5l42.75-36.13a13.08,13.08,0,0,1,4.48-2.15,21.68,21.68,0,0,1,6.13-.83h52q7.95,0,11.6,3.64t3.64,11.6V517.23a14.47,14.47,0,0,0,1,5.47,7.08,7.08,0,0,0,4.3,3.81V402.22a23.33,23.33,0,0,1,1-7.29,10,10,0,0,1,3-4.64l.33-.33,43.09-36.13a13.06,13.06,0,0,1,4.31-2.15,21.29,21.29,0,0,1,6.3-.83h50.38q8,0,11.6,3.64t3.64,11.6V530.16a88.69,88.69,0,0,1-4.31,28.17,48.24,48.24,0,0,1-15.57,22.21l-43.09,35.79q-11.61,9.95-32.15,15.41T541.57,637.21ZM686.74,530.16V366.09q0-6.29-2.82-9.11c-1.88-1.87-4.92-2.82-9.11-2.82H624.43c-4.2,0-7.24.95-9.12,2.82s-2.81,4.92-2.81,9.11V517.23a14.31,14.31,0,0,1-5,11.1q-5,4.49-22.53,4.48-17.25,0-22.21-4.48a14.3,14.3,0,0,1-5-11.1V366.09q0-6.29-2.82-9.11c-1.88-1.87-4.92-2.82-9.11-2.82h-52c-4.2,0-7.24.95-9.11,2.82s-2.82,4.92-2.82,9.11V530.16a81.28,81.28,0,0,0,4.47,27.67A46.29,46.29,0,0,0,502.29,579q11.43,8.79,31.32,13.76t50.71,5q30.82,0,50.71-5T666.35,579a46.15,46.15,0,0,0,15.91-21.21A81,81,0,0,0,686.74,530.16ZM518.37,384h3.31V522.2q0,18.57,13.09,30t49.88,11.43q36.79,0,50.05-11.43t13.26-30V384h3.31V522.2q0,19.89-13.92,32.32T584.65,567q-38.77,0-52.53-12.43T518.37,522.2Z" transform="translate(-14.92 -43.09)"/>
            <path class="cls-4" d="M889.91,632.24H725.51q-7.95,0-11.6-3.64T710.27,617V572.58a32.06,32.06,0,0,1,2.15-12.43,34.7,34.7,0,0,1,6.8-10.11l76.23-92.47h-64q-8,0-11.6-3.64t-3.65-11.6V402.22a20.26,20.26,0,0,1,1.16-7.29,12.37,12.37,0,0,1,3.48-5l42.76-36.13a12.93,12.93,0,0,1,4.47-2.15,21.76,21.76,0,0,1,6.14-.83H926.7q7.95,0,11.6,3.64t3.64,11.6v49.39a33.47,33.47,0,0,1-2.15,12.59A34,34,0,0,1,933,438.35l-72.59,87.83h72.25q8,0,11.6,3.65t3.65,11.6v39.44a20.26,20.26,0,0,1-1.16,7.29,12.37,12.37,0,0,1-3.48,5l-43.09,35.8a11.22,11.22,0,0,1-4.14,2.32A18.41,18.41,0,0,1,889.91,632.24Zm42.75-39.44q6.3,0,9.12-2.82c1.87-1.87,2.82-4.91,2.82-9.11V541.43c0-4.2-1-7.24-2.82-9.12s-4.92-2.81-9.12-2.81H853.45l76.89-93.14a31.88,31.88,0,0,0,6.3-9.45,29.7,29.7,0,0,0,2-11.43V366.09q0-6.29-2.82-9.11c-1.88-1.87-4.92-2.82-9.11-2.82H774.24c-4.2,0-7.24.95-9.12,2.82s-2.82,4.92-2.82,9.11V406.2q0,6.3,2.82,9.11t9.12,2.82h70.92l-80.54,97.78a31.92,31.92,0,0,0-6.29,9.44,28.83,28.83,0,0,0-2,11.11v44.41q0,6.3,2.82,9.11t9.11,2.82Zm-34.8-180.3L800.75,537.12a46.47,46.47,0,0,0-3.48,5,10.44,10.44,0,0,0-1.16,5.3V552q0,4.65,2.16,6.13a8.18,8.18,0,0,0,4.8,1.5h111.7V563H803.07c-3.54,0-6.13-.88-7.79-2.65s-2.48-4.53-2.48-8.29v-5.3a12.54,12.54,0,0,1,1.65-6.46,54.86,54.86,0,0,1,4-5.8l97.11-124.63a45.48,45.48,0,0,0,3.48-5,10.49,10.49,0,0,0,1.16-5.3v-4.64c0-3.09-.72-5.14-2.15-6.13a8.23,8.23,0,0,0-4.81-1.49H792.13V384H893.22c3.53,0,6.13.89,7.79,2.65s2.49,4.54,2.49,8.29v5.3a12.56,12.56,0,0,1-1.66,6.47A54.86,54.86,0,0,1,897.86,412.5Z" transform="translate(-14.92 -43.09)"/>
          </g>
          <g class="cls-1">
            <path class="cls-5" d="M1141.8,632.24H977.41q-8,0-11.6-3.64T962.16,617V572.58a32.06,32.06,0,0,1,2.16-12.43A34.46,34.46,0,0,1,971.11,550l76.23-92.47h-64q-7.95,0-11.6-3.64t-3.64-11.6V402.22a20,20,0,0,1,1.16-7.29,12.18,12.18,0,0,1,3.48-5l42.75-36.13a13.08,13.08,0,0,1,4.48-2.15,21.68,21.68,0,0,1,6.13-.83h152.46q8,0,11.6,3.64t3.65,11.6v49.39a33.26,33.26,0,0,1-2.16,12.59,34,34,0,0,1-6.79,10.28l-72.59,87.83h72.26q7.95,0,11.6,3.65t3.64,11.6v39.44a20,20,0,0,1-1.16,7.29,12.18,12.18,0,0,1-3.48,5l-43.08,35.8a11.27,11.27,0,0,1-4.15,2.32A18.37,18.37,0,0,1,1141.8,632.24Zm42.76-39.44q6.29,0,9.11-2.82t2.82-9.11V541.43q0-6.3-2.82-9.12t-9.11-2.81h-79.22l76.9-93.14a32.07,32.07,0,0,0,6.3-9.45,29.89,29.89,0,0,0,2-11.43V366.09q0-6.29-2.81-9.11c-1.88-1.87-4.92-2.82-9.12-2.82H1026.13c-4.2,0-7.24.95-9.12,2.82s-2.81,4.92-2.81,9.11V406.2c0,4.2.93,7.24,2.81,9.11s4.92,2.82,9.12,2.82h70.93l-80.54,97.78a32,32,0,0,0-6.3,9.44,28.83,28.83,0,0,0-2,11.11v44.41q0,6.3,2.82,9.11t9.11,2.82Zm-34.8-180.3-97.12,124.62a47.65,47.65,0,0,0-3.47,5,10.43,10.43,0,0,0-1.17,5.3V552q0,4.65,2.16,6.13a8.18,8.18,0,0,0,4.8,1.5h111.7V563H1055c-3.53,0-6.13-.88-7.78-2.65s-2.49-4.53-2.49-8.29v-5.3a12.45,12.45,0,0,1,1.66-6.46,54.7,54.7,0,0,1,4-5.8l97.12-124.63a48.48,48.48,0,0,0,3.48-5,10.49,10.49,0,0,0,1.16-5.3v-4.64c0-3.09-.72-5.14-2.16-6.13a8.22,8.22,0,0,0-4.8-1.49H1044V384h101.09c3.53,0,6.13.89,7.79,2.65s2.48,4.54,2.48,8.29v5.3a12.46,12.46,0,0,1-1.66,6.47A54.7,54.7,0,0,1,1149.76,412.5Z" transform="translate(-14.92 -43.09)"/>
          </g>
          <g class="cls-1">
            <path class="cls-6" d="M1405.63,632.24h-168.7q-8,0-11.6-3.64t-3.64-11.6V402.22a20.28,20.28,0,0,1,1.15-7.29,12.3,12.3,0,0,1,3.49-5l42.75-36.13a13,13,0,0,1,4.47-2.15,21.81,21.81,0,0,1,6.14-.83h51.37q7.95,0,11.6,3.64t3.65,11.6V501l.66-.66,42.75-36.13a13.08,13.08,0,0,1,4.48-2.15,21.68,21.68,0,0,1,6.13-.83h48.06q8,0,11.6,3.64t3.65,11.6V580.87a20.26,20.26,0,0,1-1.16,7.29,12.37,12.37,0,0,1-3.48,5l-43.09,35.8a11.3,11.3,0,0,1-4.14,2.32A18.43,18.43,0,0,1,1405.63,632.24Zm42.76-39.44q6.28,0,9.11-2.82t2.82-9.11V476.46q0-6.29-2.82-9.11t-9.11-2.82h-48.06q-6.3,0-9.11,2.82t-2.82,9.11v53.7H1343V366.09q0-6.29-2.82-9.11c-1.88-1.87-4.92-2.82-9.11-2.82h-51.37c-4.2,0-7.24.95-9.12,2.82s-2.82,4.92-2.82,9.11V580.87q0,6.3,2.82,9.11t9.12,2.82ZM1303.88,563V384h3.32V559.66h115.34v-65.3h3.31V563Z" transform="translate(-14.92 -43.09)"/>
          </g>
          <g class="cls-1">
            <path class="cls-7" d="M1654.21,632.24H1500.42q-8,0-11.6-3.64t-3.65-11.6V402.22a20.26,20.26,0,0,1,1.16-7.29,12.3,12.3,0,0,1,3.49-5l42.75-36.13a13,13,0,0,1,4.47-2.15,21.81,21.81,0,0,1,6.14-.83H1697c5.31,0,9.17,1.22,11.61,3.64s3.64,6.3,3.64,11.6v38.78a20.28,20.28,0,0,1-1.16,7.3,12.51,12.51,0,0,1-3.48,5l-28.5,23.53a10,10,0,0,1,4.8,5,21.11,21.11,0,0,1,1.49,8.62v35.46a20,20,0,0,1-1.16,7.29,12.28,12.28,0,0,1-3.48,5l-29.49,24.85H1697c5.31,0,9.17,1.22,11.61,3.65s3.64,6.3,3.64,11.6v38.78a20.26,20.26,0,0,1-1.16,7.29,12.37,12.37,0,0,1-3.48,5l-43.09,35.8a11.14,11.14,0,0,1-4.14,2.32A18.37,18.37,0,0,1,1654.21,632.24ZM1697,592.8q6.3,0,9.12-2.82c1.87-1.87,2.82-4.91,2.82-9.11V542.09c0-4.2-1-7.24-2.82-9.12s-4.92-2.81-9.12-2.81h-91.47V501.65h64.63c4.19,0,7.23-.93,9.11-2.81s2.82-4.92,2.82-9.12V454.26q0-6.3-2.82-9.12t-9.11-2.81h-64.63V416.8H1697c4.2,0,7.24-.93,9.12-2.81s2.82-4.92,2.82-9.12V366.09c0-4.19-1-7.23-2.82-9.11s-4.92-2.82-9.12-2.82H1543.18c-4.2,0-7.24.95-9.12,2.82s-2.81,4.92-2.81,9.11V580.87c0,4.2.93,7.24,2.81,9.11s4.92,2.82,9.12,2.82Zm-17.89-33.14V563h-111.7V384h111.7v3.32H1570.69V470.5h81.53v3.31h-81.53v85.85Z" transform="translate(-14.92 -43.09)"/>
          </g>
        </g>
      </g>
    </g>
  </g>
</svg>
