<?xml version="1.0" encoding="utf-8"?>
<!-- Generator: Adobe Illustrator 25.2.1, SVG Export Plug-In . SVG Version: 6.00 Build 0)  -->
<svg version="1.1" id="Capa_1" xmlns="http://www.w3.org/2000/svg" xmlns:xlink="http://www.w3.org/1999/xlink" x="0px" y="0px"
	 viewBox="0 0 1881.9 896.4" style="enable-background:new 0 0 1881.9 896.4;" xml:space="preserve">
<style type="text/css">
	.st0{fill:#C19435;}
	.st1{font-family:'BungeeShade-Regular';}
	.st2{font-size:331.44px;}
	.st3{fill:#BB6A35;}
	.st4{fill:#BB5A42;}
	.st5{fill:#B06571;}
	.st6{fill:#8D6076;}
	.st7{fill:#6E7581;}
	.st8{letter-spacing:-3;}
</style>
<text transform="matrix(1 0 0 1 0 387.1677)" class="st0 st1 st2">N</text>
<text transform="matrix(1 0 0 1 282.72 387.1677)" class="st3 st1 st2">u</text>
<text transform="matrix(1 0 0 1 563.11 387.1677)" class="st4 st1 st2">m</text>
<text transform="matrix(1 0 0 1 877.65 387.1677)" class="st5 st1 st2">e</text>
<text transform="matrix(1 0 0 1 1127.55 387.1677)" class="st6 st1 st2">r</text>
<text transform="matrix(1 0 0 1 1406.95 387.1677)" class="st7 st1 st2">i</text>
<text transform="matrix(1 0 0 1 1640.61 387.1677)" class="st0 st1 st2">c</text>
<text transform="matrix(1 0 0 1 163.4 694.9276)" class="st3 st1 st2 st8">P</text>
<text transform="matrix(1 0 0 1 422.58 694.9276)" class="st4 st1 st2">uz</text>
<text transform="matrix(1 0 0 1 954.87 694.9276)" class="st5 st1 st2">z</text>
<text transform="matrix(1 0 0 1 1206.77 694.9276)" class="st6 st1 st2 st8">l</text>
<text transform="matrix(1 0 0 1 1470.26 694.9276)" class="st7 st1 st2">e</text>
</svg>
