<svg id="Capa_1" data-name="Capa 1" xmlns="http://www.w3.org/2000/svg" width="1312.01" height="352.68" viewBox="0 0 1312.01 352.68">
  <defs>
    <style>
      .cls-1 {
        fill: #c19435;
      }

      .cls-2 {
        fill: #b06571;
      }

      .cls-3 {
        fill: #8d6076;
      }

      .cls-4 {
        fill: #6e7581;
      }
    </style>
  </defs>
  <g>
    <path class="cls-1" d="M497.08,605.89,445.68,650a13.33,13.33,0,0,1-4.95,2.86,21.36,21.36,0,0,1-7.31,1.22H374.5q-9.5,0-13.84-4.49c-2.9-3-4.35-7.75-4.35-14.29V370.77a25.69,25.69,0,0,1,1.38-9,15.16,15.16,0,0,1,4.16-6.12l51-44.5a15.34,15.34,0,0,1,5.33-2.65,25.1,25.1,0,0,1,7.32-1h63.66q7.51,0,12.46,3.27t9.29,11l26.89,51,3.56-6.53q1.57-2.85,3.36-5.51a19.64,19.64,0,0,1,3.76-4.29l51-44.08a24.26,24.26,0,0,1,6.52-3.68,23.92,23.92,0,0,1,8.11-1.22h64.06q9.48,0,13.84,4.49t4.35,14.29V590.79a25.63,25.63,0,0,1-1.39,9,15.24,15.24,0,0,1-4.15,6.12L639.43,650a13.2,13.2,0,0,1-4.94,2.86,21.36,21.36,0,0,1-7.31,1.22h-60.9q-9.88,0-14-4.49c-2.76-3-4.15-7.75-4.15-14.29V527.52l-23.33,20a20.91,20.91,0,0,1-7.31,4.29,29.87,29.87,0,0,1-9.69,1.43h-5.14v37.55a25.63,25.63,0,0,1-1.39,9A15.14,15.14,0,0,1,497.08,605.89Zm-12.65-.4q7.5,0,10.87-3.47t3.36-11.23V447.1L522,491.6q3.57,6.94,8.51,10T543,504.66h15.82q7.5,0,12.45-3.06t8.51-10l23.33-44.5V590.79c0,5.17,1.11,8.92,3.36,11.23s5.86,3.47,10.87,3.47h60.9q7.5,0,10.87-3.47t3.36-11.23V326.28q0-7.75-3.36-11.23t-10.87-3.47H614.13a18.11,18.11,0,0,0-10.48,2.86q-4.15,2.87-7.71,9.39l-35.19,66.53a33.15,33.15,0,0,1-3.37,5.31,4.65,4.65,0,0,1-3.75,1.63h-3.56a4.67,4.67,0,0,1-3.76-1.63,32.54,32.54,0,0,1-3.36-5.31l-35.59-66.53q-3.56-6.52-7.71-9.39a18.11,18.11,0,0,0-10.48-2.86H425.51q-7.51,0-10.87,3.47t-3.37,11.23V590.79q0,7.76,3.37,11.23t10.87,3.47Zm66-157.16c4.75,0,8.17-1.09,10.29-3.27s5.4-6.8,9.88-13.88l48.24-75.92a13.15,13.15,0,0,1,5.34-5.51,14,14,0,0,1,6.13-1.43h6.72q5.54,0,8.11,3.06t2.57,9.59V568.75h-4V361a12.62,12.62,0,0,0-1.38-5.91q-1.39-2.65-5.34-2.66h-5.93a12.42,12.42,0,0,0-4.74.82c-1.33.55-2.77,2.18-4.35,4.9l-48.25,75.11q-7.11,11-10.87,15.1t-12.46,4.08q-8.7,0-12.45-4.08t-10.88-15.1l-48.24-75.11q-2.37-4.08-4.55-4.9a14.1,14.1,0,0,0-4.94-.82h-5.93q-4,0-5.14,2.66a14.34,14.34,0,0,0-1.19,5.91V568.75h-3.95V361q0-6.53,2.57-9.59t7.71-3.06h6.72a15.31,15.31,0,0,1,6.33,1.43,12.82,12.82,0,0,1,5.54,5.51l48.24,75.92q6.72,10.62,9.88,13.88T550.46,448.33Z" transform="translate(-356.31 -307.5)"/>
    <path class="cls-2" d="M933.23,654.06H749.75q-9.48,0-13.84-4.49c-2.9-3-4.35-7.75-4.35-14.29V370.77a25.44,25.44,0,0,1,1.39-9,15,15,0,0,1,4.15-6.12l51-44.5a15.48,15.48,0,0,1,5.34-2.65,25.08,25.08,0,0,1,7.31-1H984.24q9.5,0,13.84,4.49t4.35,14.29V374a25.65,25.65,0,0,1-1.38,9,15.16,15.16,0,0,1-4.16,6.12l-34,29a12.22,12.22,0,0,1,5.73,6.13,26.75,26.75,0,0,1,1.78,10.61v43.68a25.65,25.65,0,0,1-1.38,9,15.31,15.31,0,0,1-4.15,6.12l-35.2,30.61h54.57q9.5,0,13.84,4.49t4.35,14.29v47.76a25.65,25.65,0,0,1-1.38,9,15.16,15.16,0,0,1-4.16,6.12L945.49,650a13.36,13.36,0,0,1-4.94,2.86A21.46,21.46,0,0,1,933.23,654.06Zm51-48.57q7.51,0,10.88-3.47c2.23-2.31,3.36-6.06,3.36-11.23V543c0-5.16-1.13-8.91-3.36-11.22s-5.87-3.47-10.88-3.47H875.1V493.23h77.11q7.51,0,10.88-3.47c2.23-2.31,3.36-6.05,3.36-11.22V434.86c0-5.17-1.13-8.91-3.36-11.23s-5.87-3.47-10.88-3.47H875.1V388.73H984.24q7.51,0,10.88-3.47c2.23-2.31,3.36-6.05,3.36-11.22V326.28c0-5.17-1.13-8.91-3.36-11.23s-5.87-3.47-10.88-3.47H800.76q-7.51,0-10.87,3.47t-3.36,11.23V590.79q0,7.76,3.36,11.23t10.87,3.47Zm-21.35-40.82v4.08H829.63V348.32H962.89v4.08H833.58V454.86h97.28v4.08H833.58V564.67Z" transform="translate(-356.31 -307.5)"/>
    <path class="cls-3" d="M1170.88,605.89,1119.48,650a13.33,13.33,0,0,1-5,2.86,21.36,21.36,0,0,1-7.31,1.22H1047.9q-9.48,0-13.84-4.49c-2.9-3-4.35-7.75-4.35-14.29V370.77a25.44,25.44,0,0,1,1.39-9,15,15,0,0,1,4.15-6.12l51-44.5a15.48,15.48,0,0,1,5.34-2.65,25,25,0,0,1,7.31-1H1140a33.68,33.68,0,0,1,14.63,2.86,39.85,39.85,0,0,1,11.86,9.39l27.29,32.65,47.84-41.23a15.48,15.48,0,0,1,5.34-2.65,25.1,25.1,0,0,1,7.32-1h59.31c6.33,0,10.93,1.5,13.84,4.49s4.35,7.76,4.35,14.29V590.79a25.63,25.63,0,0,1-1.39,9,15.14,15.14,0,0,1-4.15,6.12L1274.88,650a13.33,13.33,0,0,1-5,2.86,21.36,21.36,0,0,1-7.31,1.22h-59.31q-9.49,0-13.84-4.49c-2.91-3-4.35-7.75-4.35-14.29V586.71l-8.7-11v15.1a25.63,25.63,0,0,1-1.39,9A15.14,15.14,0,0,1,1170.88,605.89Zm-12.65-.4q7.5,0,10.87-3.47t3.36-11.23V456.08l67.62,84.5v50.21q0,7.76,3.36,11.23t10.88,3.47h59.31q7.5,0,10.87-3.47t3.36-11.23V326.28q0-7.75-3.36-11.23t-10.87-3.47h-59.31q-7.53,0-10.88,3.47t-3.36,11.23v86.94l-76.71-90.62a31,31,0,0,0-10.48-8.57,30.72,30.72,0,0,0-12.85-2.45h-41.13q-7.52,0-10.87,3.47t-3.36,11.23V590.79q0,7.76,3.36,11.23t10.87,3.47Zm-21.36-253.9,145.52,169V348.32h3.95V568.75h-3.95v-42L1132.92,353.63a6.64,6.64,0,0,0-1-.82,1.91,1.91,0,0,0-1-.41.64.64,0,0,0-.59.41,1.77,1.77,0,0,0-.2.82V568.75h-4V352.81a4.33,4.33,0,0,1,1.58-3.67,5.14,5.14,0,0,1,3.16-1.23,4.81,4.81,0,0,1,2.77.82A24.1,24.1,0,0,1,1136.87,351.59Z" transform="translate(-356.31 -307.5)"/>
    <path class="cls-4" d="M1491.17,660.18q-38.36,0-63.07-8.36t-38.55-22.25a74.79,74.79,0,0,1-19.18-31.84,129.61,129.61,0,0,1-5.34-37.15V370.77a25.44,25.44,0,0,1,1.39-9,15,15,0,0,1,4.15-6.12l51-44.5a15.3,15.3,0,0,1,5.34-2.65,25,25,0,0,1,7.31-1h62.08q9.5,0,13.84,4.49t4.35,14.29V512.42a18.48,18.48,0,0,0,1.19,6.73,8.61,8.61,0,0,0,5.14,4.7V370.77a29.25,29.25,0,0,1,1.19-9,12.29,12.29,0,0,1,3.55-5.71l.4-.41,51.41-44.5a15.4,15.4,0,0,1,5.14-2.65,24.49,24.49,0,0,1,7.51-1h60.1q9.49,0,13.84,4.49t4.35,14.29V528.34a112.5,112.5,0,0,1-5.14,34.69,59.32,59.32,0,0,1-18.58,27.35l-51.41,44.09q-13.85,12.24-38.35,19T1491.17,660.18Zm173.2-131.84V326.28c0-5.17-1.13-8.91-3.36-11.23s-5.87-3.47-10.88-3.47H1590q-7.52,0-10.88,3.47t-3.36,11.23V512.42a17.88,17.88,0,0,1-5.93,13.67q-5.92,5.5-26.89,5.51-20.57,0-26.49-5.51a17.91,17.91,0,0,1-5.93-13.67V326.28c0-5.17-1.13-8.91-3.36-11.23s-5.87-3.47-10.88-3.47h-62.08q-7.51,0-10.87,3.47c-2.25,2.32-3.36,6.06-3.36,11.23V528.34a103.17,103.17,0,0,0,5.33,34.08,56.81,56.81,0,0,0,19,26.12q13.65,10.83,37.37,17t60.5,6.12q36.78,0,60.5-6.12t37.37-17a56.81,56.81,0,0,0,19-26.12A102.91,102.91,0,0,0,1664.37,528.34Zm-200.88-180h4V518.54q0,22.86,15.62,36.94t59.51,14.08q43.89,0,59.71-14.08t15.81-36.94V348.32h4V518.54q0,24.5-16.61,39.8t-62.87,15.31q-46.27,0-62.68-15.31t-16.41-39.8Z" transform="translate(-356.31 -307.5)"/>
  </g>
</svg>
